HIERARCHY
ROOT Hips
{
  OFFSET -205.778 102.478 59.1413
  CHANNELS 6 Xposition Yposition Zposition Zrotation Xrotation Yrotation
  JOINT ToSpine
  {
    OFFSET -0.0105055 1.38907 -7.13956
    CHANNELS 3 Zrotation Xrotation Yrotation
    JOINT Spine
    {
      OFFSET 0.0105055 10 1
      CHANNELS 3 Zrotation Xrotation Yrotation
      JOINT Spine1
      {
        OFFSET 0 12 1.60637
        CHANNELS 3 Zrotation Xrotation Yrotation
        JOINT Neck
        {
          OFFSET 0 27 2.26658
          CHANNELS 3 Zrotation Xrotation Yrotation
          JOINT Head
          {
            OFFSET 0 9 2.12705
            CHANNELS 3 Zrotation Xrotation Yrotation
            End Site
            {
              OFFSET 0 11 2
            }
          }
        }
        JOINT LeftShoulder
        {
          OFFSET 8 19.6109 2.86452
          CHANNELS 3 Zrotation Xrotation Yrotation
          JOINT LeftArm
          {
            OFFSET 12 1 0.681055
            CHANNELS 3 Zrotation Xrotation Yrotation
            JOINT LeftForeArm
            {
              OFFSET 19 0 -1.52608
              CHANNELS 3 Zrotation Xrotation Yrotation
              JOINT LeftHand
              {
                OFFSET 23 0 0
                CHANNELS 3 Zrotation Xrotation Yrotation
                End Site
                {
                  OFFSET 10 0 0
                }
              }
            }
          }
        }
        JOINT RightShoulder
        {
          OFFSET -8 19.6109 2.86452
          CHANNELS 3 Zrotation Xrotation Yrotation
          JOINT RightArm
          {
            OFFSET -12 1 0.681055
            CHANNELS 3 Zrotation Xrotation Yrotation
            JOINT RightForeArm
            {
              OFFSET -19 0 -1.52608
              CHANNELS 3 Zrotation Xrotation Yrotation
              JOINT RightHand
              {
                OFFSET -23 0 0
                CHANNELS 3 Zrotation Xrotation Yrotation
                End Site
                {
                  OFFSET -10 0 0
                }
              }
            }
          }
        }
      }
    }
  }
  JOINT LeftUpLeg
  {
    OFFSET 9 -7.17245 0
    CHANNELS 3 Zrotation Xrotation Yrotation
    JOINT LeftLeg
    {
      OFFSET 0 -44.1113 0
      CHANNELS 3 Zrotation Xrotation Yrotation
      JOINT LeftFoot
      {
        OFFSET 0 -36.1829 0
        CHANNELS 3 Zrotation Xrotation Yrotation
        JOINT LeftToeBase
        {
          OFFSET 0 -4.84184 13
          CHANNELS 3 Zrotation Xrotation Yrotation
          End Site
          {
            OFFSET 0 1 6
          }
        }
      }
    }
  }
  JOINT RightUpLeg
  {
    OFFSET -9 -7.17245 0
    CHANNELS 3 Zrotation Xrotation Yrotation
    JOINT RightLeg
    {
      OFFSET 0 -44.0551 0
      CHANNELS 3 Zrotation Xrotation Yrotation
      JOINT RightFoot
      {
        OFFSET 0 -36.1469 0
        CHANNELS 3 Zrotation Xrotation Yrotation
        JOINT RightToeBase
        {
          OFFSET 0 -4.92256 13
          CHANNELS 3 Zrotation Xrotation Yrotation
          End Site
          {
            OFFSET 0 1 6
          }
        }
      }
    }
  }
}
MOTION
Frames:	6
Frame Time:	0.0333333
67.2294 97.7369 98.2177 167.137 -34.496 -1.65363 0 0 0 6.12331 15.3024 -5.2562 -1.98681 -10.8486 -0.0497065 5.7853 -71.3588 -4.58301 -16.0673 27.8059 1.12093 48.3447 -5.00056 -10.658 1.88382 -39.2821 -16.8984 -11.6123 -17.2826 -34.6738 27.8233 0.14548 0.909837 -17.4662 1.76002 -29.1724 32.8926 -33.4425 98.3587 3.24143 -60.6465 2.33918 -23.4632 -2.12477 10.1958 51.8471 14.1553 -7.38244 0.0762581 30.3518 -3.61375 19.2372 -1.12061 0.189754 -1.79199 -3.98398 3.17812 -65.9031 -18.786 -41.5785 -0.423061 11.8682 7.36454 -12.9118 -18.2942 -2.08689 0.051856 -1.62069 -0.58248 
72.4521 99.0248 100.025 157.502 -36.0699 -4.24482 0 0 0 10.0028 16.2155 -7.1987 -1.96596 -11.3283 -0.194195 1.34454 -73.5927 -8.4839 -17.6835 30.0557 1.06154 47.0838 -5.05459 -11.3564 12.2401 -33.7438 -13.3318 -7.7897 -13.7078 -30.0416 30.6666 -0.0107836 -0.0252562 -23.9152 3.21253 -28.4687 34.9742 -31.3405 95.0802 -1.72424 -64.7684 -2.95002 -24.7862 -2.18795 9.96189 49.6037 20.0779 -14.6249 -0.261219 19.5122 -0.570041 19.7826 2.75094 -0.472829 -2.09484 -3.86033 3.9749 -70.1171 -23.55 -49.232 -1.28553 7.96788 7.26031 -13.603 -20.1721 -2.43377 0.511739 -0.149767 -1.48468 
77.6055 99.9442 101.569 147.893 -36.9667 -6.17144 0 0 0 13.7693 17.8967 -8.61844 -0.195523 -12.3764 -0.630935 -10.5811 -74.8449 -18.1479 -17.1173 31.1276 -0.769391 45.362 -4.48846 -10.3592 19.4006 -32.899 -10.6244 -9.6107 -20.3477 -25.6491 27.0157 0.0499125 -0.0201159 -29.5656 4.49765 -28.7868 38.8992 -30.5012 93.6699 -9.83344 -67.4458 -10.8698 -25.6316 -2.16983 9.52363 45.4346 22.8291 -13.6951 1.08075 12.9074 4.17423 19.2218 2.41169 -0.417213 -1.74697 -1.76801 3.57999 -76.6107 -28.0455 -54.0519 -1.42736 9.36375 7.18502 -14.9168 -24.1591 -3.21113 0.799891 2.60547 -1.5692 
82.9096 100.16 102.859 138.526 -37.7221 -8.09817 0 0 0 17.3081 21.3248 -9.42755 1.74629 -14.4489 -0.803136 -15.2791 -74.6079 -22.922 -18.6367 31.3645 -1.45205 44.9304 -3.57854 -7.72256 22.0806 -32.8186 -4.91775 -12.6491 -26.2383 -26.3262 24.2256 -0.390351 -1.77104 -29.1485 4.39704 -28.7162 35.3996 -32.8932 89.9671 -12.889 -70.3598 -14.0411 -24.3323 -1.90493 8.79023 38.3765 23.5867 -3.6005 4.10718 9.53436 5.22948 15.7628 2.27057 -0.292887 -1.61805 -2.16169 3.18795 -83.3058 -31.3648 -57.3689 -1.00928 11.5043 6.24626 -17.0934 -26.0254 -3.97289 1.11754 1.56504 -2.66647 
88.1655 99.3952 103.998 129.269 -38.0694 -10.4807 0 0 0 21.3736 24.3657 -9.89189 2.38036 -16.1042 -0.859848 -12.1919 -73.2935 -21.4992 -21.0452 30.3417 -1.15867 44.6134 -2.9461 -5.85454 21.9774 -23.3659 1.68685 -24.1494 -44.7777 -32.1202 24.5317 -0.107226 -0.470945 -29.4967 4.3773 -28.1993 29.61 -34.9406 82.7835 -16.6584 -75.0485 -18.0757 -23.9268 -1.72848 8.14404 30.0125 22.5187 4.46068 5.41446 8.28601 7.04032 12.2051 3.75631 -0.407095 -2.04593 -2.67541 4.1068 -89.5265 -34.1456 -61.8273 -0.568021 14.1848 4.92653 -19.0328 -27.7593 -4.75238 0.850182 0.5574 -2.22105 
93.3752 97.7083 105.227 120.68 -37.7215 -12.6839 0 0 0 24.2909 25.2418 -9.70369 2.39136 -15.8663 -0.876488 -8.51484 -72.3019 -19.131 -22.3804 29.7745 -0.647424 46.904 -3.52658 -6.85491 10.5997 -15.6856 9.59341 -30.2395 -48.7239 -37.8753 25.4873 0.561407 2.40642 -23.8113 3.08989 -28.2243 23.6969 -37.4689 79.1864 -17.6853 -76.0082 -19.3327 -23.1428 -1.79929 8.78475 21.376 20.1082 6.19146 4.03556 8.07845 12.4824 10.9953 4.28292 -0.41348 -2.08133 -2.59025 4.20847 -95.5311 -35.7552 -68.3697 -0.362381 15.3942 5.59557 -20.5012 -25.2387 -4.61554 0.560056 -0.228456 -1.668 
